<svg width="190" height="60" viewBox="0 0 190 60" fill="none" xmlns="http://www.w3.org/2000/svg">
<g clip-path="url(#clip0_64_1230)">
<mask id="mask0_64_1230" style="mask-type:luminance" maskUnits="userSpaceOnUse" x="0" y="2" width="52" height="56">
<path d="M51.4038 2H0V58H51.4038V2Z" fill="white"/>
</mask>
<g mask="url(#mask0_64_1230)">
<path d="M11.3803 13.2645C16.3162 16.0714 18.838 21.016 17.1782 26.7257L33.0137 12.018L34.4734 12.1683C36.5394 14.3171 38.8333 16.2348 41.0087 18.2572C42.4298 19.5777 51.216 27.8523 51.6159 28.6979C52.7812 31.1647 49.78 32.2217 48.3095 30.1972V43.6583L51.6911 44.0202L52.1835 45.0748C41.8064 62.5111 15.4907 61.4758 2.91222 46.9032L2.66713 45.6045C5.11576 42.5492 9.03484 40.8537 12.6444 39.7226L12.6658 30.4151C2.67358 29.6938 -0.23509 19.4253 1.07414 10.7671C1.35576 9.73848 4.23434 10.6516 5.07277 10.8477C6.88074 11.2683 9.77007 12.3492 11.3781 13.2645H11.3803ZM3.43677 13.2645V18.1503C3.43677 21.6763 7.889 28.5976 12.0209 27.057L7.94704 19.5625C11.0148 20.6805 12.6787 23.6878 14.2782 26.2876C18.1049 19.0787 9.30572 14.1645 3.43677 13.2645ZM45.0891 43.5538V27.0526L33.4136 15.6638L21.5854 27.3838L21.8906 38.3454C29.8943 38.8554 37.0489 44.5475 45.0891 43.5538ZM18.466 38.668V30.4173L17.2363 31.4569L15.4606 31.2847V38.8837L18.466 38.6658V38.668ZM36.8425 45.4911C26.2611 41.6753 15.9808 38.3956 6.01653 46.1602C17.0966 57.015 36.1997 58.996 47.2281 47.0297C47.2239 46.6156 45.3429 46.9709 45.074 47.0166C40.7594 47.7467 35.7138 50.2615 30.9219 51.1616C28.8366 51.5537 26.7255 52.0201 24.5779 51.9264L23.7008 51.0634L24.0576 50.0806L38.4269 46.2648C38.1452 46.001 37.2122 45.6263 36.8404 45.4911H36.8425Z" fill="#022A0C"/>
<path d="M41.0093 18.2575C38.8317 16.2351 36.54 14.3174 34.474 12.1686L33.0143 12.0183L17.1788 26.7259C18.8363 21.0186 16.3168 16.0739 11.3809 13.2648C16.4372 -4.33475 42.022 -0.27483 41.0093 18.2597V18.2575Z" fill="#C5E77B"/>
<path d="M45.0896 43.554C37.0495 44.5477 29.8948 38.8556 21.8912 38.3456L21.5859 27.384L33.4141 15.6641L45.0896 27.0528V43.554ZM36.6452 35.7741L36.8452 28.2231L28.9639 28.332L29.0758 35.4298C29.811 36.5128 35.2651 36.1185 36.6474 35.7741H36.6452Z" fill="#C4E77B"/>
<path d="M36.8424 45.4913C37.2164 45.6264 38.1473 46.0012 38.4289 46.2649L24.0597 50.0808L23.7028 51.0636L24.58 51.9267C26.7275 52.0181 28.8365 51.5518 30.924 51.1616C35.7159 50.2616 40.7592 47.7469 45.0761 47.0167C45.3448 46.971 47.2258 46.6158 47.2302 47.0299C36.2017 58.9982 17.0965 57.0174 6.01855 46.1604C15.9829 38.3957 26.2632 41.6754 36.8446 45.4913H36.8424Z" fill="#5D9B33"/>
<path d="M3.43652 13.2646C9.30762 14.1625 18.1047 19.0767 14.278 26.2878C12.6764 23.688 11.0146 20.6807 7.94681 19.5627L12.0207 27.057C7.88877 28.5956 3.43652 21.6744 3.43652 18.1506V13.2646Z" fill="#5D9B34"/>
<path d="M36.6433 35.7738C35.2632 36.1159 29.8091 36.5103 29.0716 35.4294L28.96 28.3317L36.8411 28.2227L36.6411 35.7738H36.6433Z" fill="#022A0C"/>
</g>
<path d="M64.0605 42.4445V15.293H75.7964C77.8142 15.293 79.58 15.6598 81.0934 16.3934C82.6069 17.1269 83.7839 18.1831 84.6247 19.562C85.4656 20.9407 85.886 22.5934 85.886 24.5203C85.886 26.4647 85.4523 28.1041 84.5849 29.4388C83.7264 30.7735 82.5183 31.781 80.9606 32.4616C79.4118 33.1421 77.6019 33.4823 75.5308 33.4823H68.5212V27.7551H74.044C74.9113 27.7551 75.6502 27.649 76.261 27.437C76.8805 27.2159 77.354 26.8669 77.6815 26.3896C78.0178 25.9124 78.186 25.2892 78.186 24.5203C78.186 23.7425 78.0178 23.1105 77.6815 22.6244C77.354 22.1294 76.8805 21.7671 76.261 21.5374C75.6502 21.2986 74.9113 21.1793 74.044 21.1793H71.4418V42.4445H64.0605ZM79.9915 29.9823L86.7887 42.4445H78.7701L72.1322 29.9823H79.9915ZM87.6717 42.4445V22.0809H94.9999V42.4445H87.6717ZM91.3359 19.9597C90.3446 19.9597 89.4949 19.6326 88.7869 18.9786C88.0789 18.3245 87.7248 17.5379 87.7248 16.6187C87.7248 15.6996 88.0789 14.9129 88.7869 14.2589C89.4949 13.6049 90.3446 13.2778 91.3359 13.2778C92.3359 13.2778 93.1857 13.6049 93.8847 14.2589C94.5929 14.9129 94.9468 15.6996 94.9468 16.6187C94.9468 17.5379 94.5929 18.3245 93.8847 18.9786C93.1857 19.6326 92.3359 19.9597 91.3359 19.9597ZM97.1607 42.4445V15.293H116.756V21.2323H104.542V25.899H115.747V31.8384H104.542V36.5051H116.703V42.4445H97.1607ZM125.641 37.6187L125.694 28.9217H126.65L131.588 22.0809H139.819L131.535 32.74H129.464L125.641 37.6187ZM119.056 42.4445V15.293H126.384V42.4445H119.056ZM131.641 42.4445L126.968 34.3839L131.748 29.187L140.032 42.4445H131.641ZM149.245 42.8157C147.033 42.8157 145.139 42.3782 143.563 41.5032C141.988 40.6194 140.78 39.3908 139.939 37.8177C139.098 36.2355 138.678 34.4015 138.678 32.3157C138.678 30.2298 139.098 28.4003 139.939 26.827C140.78 25.245 141.988 24.0165 143.563 23.1415C145.139 22.2576 147.033 21.8157 149.245 21.8157C151.458 21.8157 153.352 22.2576 154.927 23.1415C156.503 24.0165 157.711 25.245 158.552 26.827C159.393 28.4003 159.813 30.2298 159.813 32.3157C159.813 34.4015 159.393 36.2355 158.552 37.8177C157.711 39.3908 156.503 40.6194 154.927 41.5032C153.352 42.3782 151.458 42.8157 149.245 42.8157ZM149.299 37.4067C149.918 37.4067 150.453 37.1989 150.905 36.7835C151.356 36.368 151.706 35.776 151.954 35.0071C152.201 34.238 152.325 33.3233 152.325 32.2626C152.325 31.1932 152.201 30.2785 151.954 29.5183C151.706 28.7494 151.356 28.1572 150.905 27.7419C150.453 27.3264 149.918 27.1187 149.299 27.1187C148.644 27.1187 148.082 27.3264 147.613 27.7419C147.143 28.1572 146.785 28.7494 146.537 29.5183C146.289 30.2785 146.165 31.1932 146.165 32.2626C146.165 33.3233 146.289 34.238 146.537 35.0071C146.785 35.776 147.143 36.368 147.613 36.7835C148.082 37.1989 148.644 37.4067 149.299 37.4067Z" fill="white"/>
<path d="M65.262 58V49.236H62.168V48.06H69.56V49.236H66.466V58H65.262ZM70.4208 58V48.06H71.5968V52.218L71.4568 52.19C71.5501 51.7793 71.7088 51.4433 71.9328 51.182C72.1568 50.9207 72.4321 50.7293 72.7588 50.608C73.0854 50.4773 73.4448 50.412 73.8368 50.412C74.3688 50.412 74.8168 50.5333 75.1808 50.776C75.5541 51.0093 75.8341 51.3407 76.0208 51.77C76.2168 52.19 76.3148 52.6753 76.3148 53.226V58H75.1388V53.562C75.1388 52.8433 75.0081 52.3113 74.7468 51.966C74.4948 51.6207 74.1074 51.448 73.5848 51.448C72.9874 51.448 72.5068 51.63 72.1428 51.994C71.7788 52.358 71.5968 52.8853 71.5968 53.576V58H70.4208ZM81.2895 58.168C80.5895 58.168 79.9828 58.0093 79.4695 57.692C78.9655 57.3747 78.5735 56.9267 78.2935 56.348C78.0228 55.76 77.8875 55.074 77.8875 54.29C77.8875 53.506 78.0228 52.8247 78.2935 52.246C78.5735 51.6673 78.9608 51.2193 79.4555 50.902C79.9595 50.5753 80.5522 50.412 81.2335 50.412C81.8775 50.412 82.4468 50.566 82.9415 50.874C83.4362 51.1727 83.8188 51.6113 84.0895 52.19C84.3695 52.7687 84.5095 53.4733 84.5095 54.304V54.654H79.1195C79.1662 55.4473 79.3762 56.0447 79.7495 56.446C80.1322 56.8473 80.6455 57.048 81.2895 57.048C81.7748 57.048 82.1715 56.936 82.4795 56.712C82.7968 56.4787 83.0162 56.1753 83.1375 55.802L84.3975 55.9C84.2015 56.5627 83.8282 57.1087 83.2775 57.538C82.7362 57.958 82.0735 58.168 81.2895 58.168ZM79.1195 53.618H83.2215C83.1655 52.8993 82.9555 52.372 82.5915 52.036C82.2368 51.7 81.7842 51.532 81.2335 51.532C80.6642 51.532 80.1928 51.7093 79.8195 52.064C79.4555 52.4093 79.2222 52.9273 79.1195 53.618ZM92.6371 58.168C91.9371 58.168 91.3305 58.0093 90.8171 57.692C90.3131 57.3747 89.9211 56.9267 89.6411 56.348C89.3705 55.76 89.2351 55.074 89.2351 54.29C89.2351 53.506 89.3705 52.8247 89.6411 52.246C89.9211 51.6673 90.3085 51.2193 90.8031 50.902C91.3071 50.5753 91.8998 50.412 92.5811 50.412C93.2251 50.412 93.7945 50.566 94.2891 50.874C94.7838 51.1727 95.1665 51.6113 95.4371 52.19C95.7171 52.7687 95.8571 53.4733 95.8571 54.304V54.654H90.4671C90.5138 55.4473 90.7238 56.0447 91.0971 56.446C91.4798 56.8473 91.9931 57.048 92.6371 57.048C93.1225 57.048 93.5191 56.936 93.8271 56.712C94.1445 56.4787 94.3638 56.1753 94.4851 55.802L95.7451 55.9C95.5491 56.5627 95.1758 57.1087 94.6251 57.538C94.0838 57.958 93.4211 58.168 92.6371 58.168ZM90.4671 53.618H94.5691C94.5131 52.8993 94.3031 52.372 93.9391 52.036C93.5845 51.7 93.1318 51.532 92.5811 51.532C92.0118 51.532 91.5405 51.7093 91.1671 52.064C90.8031 52.4093 90.5698 52.9273 90.4671 53.618ZM97.4501 58V48.06H98.6261V54.57L102.238 50.58H103.806L100.88 53.73L103.932 58H102.504L100.082 54.528L98.6261 56.068V58H97.4501ZM107.909 58.168C107.227 58.168 106.63 58.0093 106.117 57.692C105.603 57.3747 105.207 56.9267 104.927 56.348C104.647 55.76 104.507 55.074 104.507 54.29C104.507 53.4967 104.647 52.8107 104.927 52.232C105.207 51.6533 105.603 51.2053 106.117 50.888C106.63 50.5707 107.227 50.412 107.909 50.412C108.59 50.412 109.183 50.5707 109.687 50.888C110.2 51.2053 110.597 51.6533 110.877 52.232C111.157 52.8107 111.297 53.4967 111.297 54.29C111.297 55.074 111.157 55.76 110.877 56.348C110.597 56.9267 110.2 57.3747 109.687 57.692C109.183 58.0093 108.59 58.168 107.909 58.168ZM107.909 57.048C108.59 57.048 109.117 56.8053 109.491 56.32C109.873 55.8253 110.065 55.1487 110.065 54.29C110.065 53.4313 109.873 52.7593 109.491 52.274C109.117 51.7793 108.59 51.532 107.909 51.532C107.227 51.532 106.695 51.7793 106.313 52.274C105.93 52.7593 105.739 53.4313 105.739 54.29C105.739 55.1487 105.93 55.8253 106.313 56.32C106.695 56.8053 107.227 57.048 107.909 57.048ZM116.536 58V50.58H117.712V58H116.536ZM116.508 49.418V48.046H117.74V49.418H116.508ZM120.091 58V50.58H121.169L121.211 52.47L121.071 52.344C121.164 51.9053 121.327 51.546 121.561 51.266C121.794 50.9767 122.074 50.762 122.401 50.622C122.737 50.482 123.096 50.412 123.479 50.412C124.048 50.412 124.515 50.538 124.879 50.79C125.252 51.042 125.527 51.3827 125.705 51.812C125.891 52.232 125.985 52.7033 125.985 53.226V58H124.809V53.562C124.809 53.1047 124.753 52.722 124.641 52.414C124.538 52.0967 124.37 51.8587 124.137 51.7C123.903 51.532 123.6 51.448 123.227 51.448C122.657 51.448 122.186 51.63 121.813 51.994C121.449 52.3487 121.267 52.8713 121.267 53.562V58H120.091ZM130.381 58C129.709 58 129.21 57.846 128.883 57.538C128.566 57.23 128.407 56.7493 128.407 56.096V48.844H129.583V56.068C129.583 56.404 129.658 56.6373 129.807 56.768C129.956 56.8987 130.185 56.964 130.493 56.964H131.557V58H130.381ZM127.315 51.616V50.58H131.557V51.616H127.315ZM135.827 58.168C135.127 58.168 134.52 58.0093 134.007 57.692C133.503 57.3747 133.111 56.9267 132.831 56.348C132.56 55.76 132.425 55.074 132.425 54.29C132.425 53.506 132.56 52.8247 132.831 52.246C133.111 51.6673 133.498 51.2193 133.993 50.902C134.497 50.5753 135.089 50.412 135.771 50.412C136.415 50.412 136.984 50.566 137.479 50.874C137.973 51.1727 138.356 51.6113 138.627 52.19C138.907 52.7687 139.047 53.4733 139.047 54.304V54.654H133.657C133.703 55.4473 133.913 56.0447 134.287 56.446C134.669 56.8473 135.183 57.048 135.827 57.048C136.312 57.048 136.709 56.936 137.017 56.712C137.334 56.4787 137.553 56.1753 137.675 55.802L138.935 55.9C138.739 56.5627 138.365 57.1087 137.815 57.538C137.273 57.958 136.611 58.168 135.827 58.168ZM133.657 53.618H137.759C137.703 52.8993 137.493 52.372 137.129 52.036C136.774 51.7 136.321 51.532 135.771 51.532C135.201 51.532 134.73 51.7093 134.357 52.064C133.993 52.4093 133.759 52.9273 133.657 53.618ZM142.164 58C141.735 58 141.385 57.888 141.114 57.664C140.843 57.44 140.708 57.0853 140.708 56.6V48.06H141.884V56.502C141.884 56.6513 141.921 56.768 141.996 56.852C142.08 56.9267 142.197 56.964 142.346 56.964H142.99V58H142.164ZM145.76 58C145.33 58 144.98 57.888 144.71 57.664C144.439 57.44 144.304 57.0853 144.304 56.6V48.06H145.48V56.502C145.48 56.6513 145.517 56.768 145.592 56.852C145.676 56.9267 145.792 56.964 145.942 56.964H146.586V58H145.76ZM147.927 58V50.58H149.103V58H147.927ZM147.899 49.418V48.046H149.131V49.418H147.899ZM154.022 60.268C153.49 60.268 153.009 60.1793 152.58 60.002C152.151 59.8247 151.791 59.5727 151.502 59.246C151.213 58.9193 151.017 58.5413 150.914 58.112L152.146 58.028C152.258 58.3733 152.454 58.644 152.734 58.84C153.023 59.0453 153.453 59.148 154.022 59.148C154.694 59.148 155.207 59.0127 155.562 58.742C155.926 58.4713 156.108 58.0653 156.108 57.524V56.32C155.931 56.712 155.646 57.0247 155.254 57.258C154.862 57.4913 154.423 57.608 153.938 57.608C153.313 57.608 152.753 57.454 152.258 57.146C151.773 56.838 151.39 56.4133 151.11 55.872C150.839 55.3307 150.704 54.71 150.704 54.01C150.704 53.3007 150.839 52.68 151.11 52.148C151.381 51.6067 151.754 51.182 152.23 50.874C152.715 50.566 153.266 50.412 153.882 50.412C154.405 50.412 154.871 50.5333 155.282 50.776C155.702 51.0187 155.996 51.3453 156.164 51.756V50.58H157.284V57.496C157.284 58.0747 157.153 58.5693 156.892 58.98C156.631 59.4 156.257 59.7173 155.772 59.932C155.287 60.156 154.703 60.268 154.022 60.268ZM153.994 56.488C154.629 56.488 155.137 56.2687 155.52 55.83C155.903 55.382 156.099 54.7753 156.108 54.01C156.117 53.4967 156.033 53.058 155.856 52.694C155.688 52.3207 155.441 52.036 155.114 51.84C154.797 51.6347 154.423 51.532 153.994 51.532C153.341 51.532 152.832 51.756 152.468 52.204C152.113 52.6427 151.936 53.2447 151.936 54.01C151.936 54.7753 152.118 55.382 152.482 55.83C152.855 56.2687 153.359 56.488 153.994 56.488ZM162.282 58.168C161.582 58.168 160.975 58.0093 160.462 57.692C159.958 57.3747 159.566 56.9267 159.286 56.348C159.015 55.76 158.88 55.074 158.88 54.29C158.88 53.506 159.015 52.8247 159.286 52.246C159.566 51.6673 159.953 51.2193 160.448 50.902C160.952 50.5753 161.544 50.412 162.226 50.412C162.87 50.412 163.439 50.566 163.934 50.874C164.428 51.1727 164.811 51.6113 165.082 52.19C165.362 52.7687 165.502 53.4733 165.502 54.304V54.654H160.112C160.158 55.4473 160.368 56.0447 160.742 56.446C161.124 56.8473 161.638 57.048 162.282 57.048C162.767 57.048 163.164 56.936 163.472 56.712C163.789 56.4787 164.008 56.1753 164.13 55.802L165.39 55.9C165.194 56.5627 164.82 57.1087 164.27 57.538C163.728 57.958 163.066 58.168 162.282 58.168ZM160.112 53.618H164.214C164.158 52.8993 163.948 52.372 163.584 52.036C163.229 51.7 162.776 51.532 162.226 51.532C161.656 51.532 161.185 51.7093 160.812 52.064C160.448 52.4093 160.214 52.9273 160.112 53.618ZM167.095 58V50.58H168.173L168.215 52.47L168.075 52.344C168.168 51.9053 168.331 51.546 168.565 51.266C168.798 50.9767 169.078 50.762 169.405 50.622C169.741 50.482 170.1 50.412 170.483 50.412C171.052 50.412 171.519 50.538 171.883 50.79C172.256 51.042 172.531 51.3827 172.709 51.812C172.895 52.232 172.989 52.7033 172.989 53.226V58H171.813V53.562C171.813 53.1047 171.757 52.722 171.645 52.414C171.542 52.0967 171.374 51.8587 171.141 51.7C170.907 51.532 170.604 51.448 170.231 51.448C169.661 51.448 169.19 51.63 168.817 51.994C168.453 52.3487 168.271 52.8713 168.271 53.562V58H167.095ZM177.963 58.168C177.273 58.168 176.671 58.0093 176.157 57.692C175.653 57.3747 175.261 56.9267 174.981 56.348C174.701 55.76 174.561 55.074 174.561 54.29C174.561 53.506 174.701 52.8247 174.981 52.246C175.261 51.6673 175.653 51.2193 176.157 50.902C176.671 50.5753 177.273 50.412 177.963 50.412C178.533 50.412 179.037 50.5147 179.475 50.72C179.923 50.916 180.287 51.2053 180.567 51.588C180.847 51.9707 181.029 52.4373 181.113 52.988L179.881 53.072C179.797 52.5773 179.583 52.1993 179.237 51.938C178.892 51.6673 178.467 51.532 177.963 51.532C177.282 51.532 176.75 51.7793 176.367 52.274C175.985 52.7593 175.793 53.4313 175.793 54.29C175.793 55.1487 175.985 55.8253 176.367 56.32C176.75 56.8053 177.282 57.048 177.963 57.048C178.467 57.048 178.892 56.908 179.237 56.628C179.583 56.348 179.797 55.928 179.881 55.368L181.113 55.452C181.029 56.0027 180.847 56.4833 180.567 56.894C180.287 57.2953 179.923 57.608 179.475 57.832C179.037 58.056 178.533 58.168 177.963 58.168ZM185.469 58.168C184.769 58.168 184.163 58.0093 183.649 57.692C183.145 57.3747 182.753 56.9267 182.473 56.348C182.203 55.76 182.067 55.074 182.067 54.29C182.067 53.506 182.203 52.8247 182.473 52.246C182.753 51.6673 183.141 51.2193 183.635 50.902C184.139 50.5753 184.732 50.412 185.413 50.412C186.057 50.412 186.627 50.566 187.121 50.874C187.616 51.1727 187.999 51.6113 188.269 52.19C188.549 52.7687 188.689 53.4733 188.689 54.304V54.654H183.299C183.346 55.4473 183.556 56.0447 183.929 56.446C184.312 56.8473 184.825 57.048 185.469 57.048C185.955 57.048 186.351 56.936 186.659 56.712C186.977 56.4787 187.196 56.1753 187.317 55.802L188.577 55.9C188.381 56.5627 188.008 57.1087 187.457 57.538C186.916 57.958 186.253 58.168 185.469 58.168ZM183.299 53.618H187.401C187.345 52.8993 187.135 52.372 186.771 52.036C186.417 51.7 185.964 51.532 185.413 51.532C184.844 51.532 184.373 51.7093 183.999 52.064C183.635 52.4093 183.402 52.9273 183.299 53.618Z" fill="white"/>
</g>
<defs>
<clipPath id="clip0_64_1230">
<rect width="190" height="60" fill="white"/>
</clipPath>
</defs>
</svg>
