<svg width="44" height="44" viewBox="0 0 44 44" fill="none" xmlns="http://www.w3.org/2000/svg">
<path opacity="0.5" d="M13.2825 3.66675H30.7175C32.8423 3.66675 33.9038 3.66675 34.7618 3.96558C35.5705 4.25291 36.3021 4.7225 36.9001 5.33799C37.4981 5.95347 37.9464 6.69834 38.2103 7.51491C38.5 8.39858 38.5 9.49125 38.5 11.6784V37.3524C38.5 38.9254 36.6942 39.7614 35.552 38.7164C35.2316 38.4203 34.8113 38.2559 34.375 38.2559C33.9387 38.2559 33.5184 38.4203 33.198 38.7164L32.3125 39.5267C31.7511 40.0459 31.0146 40.3342 30.25 40.3342C29.4854 40.3342 28.7489 40.0459 28.1875 39.5267C27.6261 39.0076 26.8896 38.7193 26.125 38.7193C25.3604 38.7193 24.6239 39.0076 24.0625 39.5267C23.5011 40.0459 22.7646 40.3342 22 40.3342C21.2354 40.3342 20.4989 40.0459 19.9375 39.5267C19.3761 39.0076 18.6396 38.7193 17.875 38.7193C17.1104 38.7193 16.3739 39.0076 15.8125 39.5267C15.2511 40.0459 14.5146 40.3342 13.75 40.3342C12.9854 40.3342 12.2489 40.0459 11.6875 39.5267L10.802 38.7164C10.4816 38.4203 10.0613 38.2559 9.625 38.2559C9.18871 38.2559 8.76844 38.4203 8.448 38.7164C7.30583 39.7614 5.5 38.9254 5.5 37.3524V11.6784C5.5 9.49125 5.5 8.39675 5.78967 7.51675C6.33967 5.84291 7.61383 4.53025 9.23817 3.96558C10.0962 3.66675 11.1577 3.66675 13.2825 3.66675Z" fill="#5AA029"/>
<path d="M27.61 15.5833C27.7304 15.4485 27.823 15.2913 27.8826 15.1206C27.9423 14.95 27.9677 14.7693 27.9575 14.5888C27.9473 14.4084 27.9016 14.2317 27.8231 14.0689C27.7446 13.9061 27.6348 13.7603 27.5 13.64C27.3652 13.5196 27.208 13.4269 27.0373 13.3673C26.8667 13.3077 26.686 13.2823 26.5056 13.2925C26.3251 13.3027 26.1484 13.3484 25.9856 13.4268C25.8228 13.5053 25.677 13.6151 25.5567 13.75L20.0365 19.9356L18.4415 18.15C18.1977 17.8806 17.8573 17.7187 17.4945 17.6995C17.1317 17.6803 16.7761 17.8055 16.5053 18.0477C16.2345 18.2899 16.0706 18.6294 16.0494 18.9921C16.0281 19.3548 16.1512 19.7111 16.3918 19.9833L19.0098 22.9166C19.1388 23.0611 19.2969 23.1767 19.4736 23.2559C19.6504 23.335 19.8419 23.376 20.0356 23.376C20.2293 23.376 20.4208 23.335 20.5975 23.2559C20.7743 23.1767 20.9324 23.0611 21.0613 22.9166L27.61 15.5833ZM13.75 27.0416C13.3853 27.0416 13.0356 27.1865 12.7777 27.4444C12.5199 27.7022 12.375 28.052 12.375 28.4166C12.375 28.7813 12.5199 29.131 12.7777 29.3889C13.0356 29.6468 13.3853 29.7916 13.75 29.7916H30.25C30.6147 29.7916 30.9644 29.6468 31.2223 29.3889C31.4801 29.131 31.625 28.7813 31.625 28.4166C31.625 28.052 31.4801 27.7022 31.2223 27.4444C30.9644 27.1865 30.6147 27.0416 30.25 27.0416H13.75Z" fill="#5AA029"/>
</svg>
