<svg width="44" height="44" viewBox="0 0 44 44" fill="none" xmlns="http://www.w3.org/2000/svg">
<path fill-rule="evenodd" clip-rule="evenodd" d="M22 40.3334C13.9003 40.3334 7.33333 33.6491 7.33333 25.4046C7.33333 17.2242 12.0138 7.67625 19.3178 4.26441C20.1573 3.87104 21.0729 3.667 22 3.66675V40.3334Z" fill="#5AA029"/>
<path opacity="0.3" d="M24.6822 4.26441C23.8427 3.87104 22.9271 3.667 22 3.66675V16.5001L30.1253 8.37475C28.5432 6.63858 26.7153 5.21408 24.6803 4.26441" fill="#5AA029"/>
<path opacity="0.4" d="M22 16.5001V26.5834L34.1257 14.4578C33.077 12.2211 31.7277 10.1366 30.1253 8.37476L22 16.5001Z" fill="#5AA029"/>
<path opacity="0.6" d="M22 35.7501L36.3202 21.4299C35.9022 19.0186 35.1641 16.6738 34.1257 14.4578L22 26.5834V35.7501Z" fill="#5AA029"/>
<path opacity="0.7" d="M36.3202 21.4299L22 35.7501V40.3334C30.0997 40.3334 36.6667 33.6491 36.6667 25.4046C36.6667 24.1029 36.5493 22.7683 36.3202 21.4299Z" fill="#5AA029"/>
</svg>
