<svg width="53" height="53" viewBox="0 0 53 53" fill="none" xmlns="http://www.w3.org/2000/svg">
<path fill-rule="evenodd" clip-rule="evenodd" d="M19.2479 7.07305C19.5375 6.78514 19.9293 6.62354 20.3377 6.62354C20.7461 6.62354 21.1379 6.78514 21.4275 7.07305L25.535 11.1496C25.9767 11.5869 26.1092 12.245 25.8685 12.8147C25.7505 13.0945 25.5527 13.3334 25.2998 13.5015C25.0468 13.6696 24.75 13.7595 24.4463 13.7599H20.3388C13.2435 13.7577 7.49516 19.464 7.49516 26.4998C7.49516 33.5355 13.2501 39.2418 20.3388 39.2418H21.3635C22.2159 39.2418 22.9049 39.9264 22.9049 40.77C22.904 40.9716 22.8635 41.171 22.7856 41.3568C22.7076 41.5427 22.5938 41.7114 22.4507 41.8533C22.3076 41.9952 22.1379 42.1076 21.9513 42.1839C21.7648 42.2602 21.565 42.299 21.3635 42.2982H20.3388C11.5452 42.2982 4.41675 35.2227 4.41675 26.4998C4.41675 17.7768 11.5452 10.7013 20.3388 10.7013H20.7253L19.2479 9.23501C19.105 9.09335 18.9916 8.92479 18.9142 8.73907C18.8368 8.55335 18.797 8.35413 18.797 8.15293C18.797 7.95172 18.8368 7.75251 18.9142 7.56678C18.9916 7.38106 19.105 7.2125 19.2479 7.07084M30.0952 12.2295C30.0952 11.3859 30.7842 10.7013 31.6367 10.7013H32.6635C41.4549 10.7013 48.5834 17.7768 48.5834 26.4998C48.5834 35.2227 41.4549 42.2982 32.6613 42.2982H32.2749L33.7522 43.7645C33.8951 43.9062 34.0085 44.0747 34.0859 44.2604C34.1633 44.4462 34.2032 44.6454 34.2032 44.8466C34.2032 45.0478 34.1633 45.247 34.0859 45.4327C34.0085 45.6185 33.8951 45.787 33.7522 45.9287C33.4626 46.2166 33.0708 46.3782 32.6624 46.3782C32.254 46.3782 31.8623 46.2166 31.5726 45.9287L27.4651 41.8499C27.2506 41.6368 27.1043 41.3646 27.0449 41.0681C26.9856 40.7716 27.0157 40.4641 27.1317 40.1848C27.2497 39.905 27.4475 39.6661 27.7004 39.498C27.9533 39.3299 28.2501 39.2401 28.5538 39.2396H32.6613C39.7545 39.2396 45.5028 33.5355 45.5028 26.4998C45.5028 19.464 39.7545 13.7577 32.6635 13.7577H31.6367C31.4351 13.7585 31.2354 13.7197 31.0488 13.6434C30.8623 13.5671 30.6926 13.4547 30.5495 13.3128C30.4063 13.1709 30.2925 13.0022 30.2146 12.8163C30.1367 12.6305 30.0961 12.4311 30.0952 12.2295Z" fill="#4A7A28"/>
<path opacity="0.5" d="M12.1194 26.4998C12.1194 21.9948 15.7985 18.3467 20.3366 18.3467H32.6635C37.2016 18.3467 40.8785 21.9971 40.8785 26.4998C40.8785 31.0026 37.2016 34.653 32.6635 34.653H20.3366C15.7985 34.653 12.1194 31.0026 12.1194 26.4998Z" fill="#4A7A28"/>
</svg>
