<svg width="53" height="53" viewBox="0 0 53 53" fill="none" xmlns="http://www.w3.org/2000/svg">
<path d="M32.0208 44.1271C35.4945 44.0388 37.9325 43.7583 39.75 42.875V46.3752C39.75 46.9609 39.5173 47.5226 39.1032 47.9367C38.6891 48.3509 38.1274 48.5835 37.5417 48.5835H34.2292C33.6435 48.5835 33.0818 48.3509 32.6676 47.9367C32.2535 47.5226 32.0208 46.9609 32.0208 46.3752V44.1271ZM13.25 42.875C15.0675 43.7583 17.5055 44.0388 20.9792 44.1271V46.3752C20.9792 46.9609 20.7465 47.5226 20.3324 47.9367C19.9182 48.3509 19.3565 48.5835 18.7708 48.5835H15.4583C14.8726 48.5835 14.3109 48.3509 13.8968 47.9367C13.4827 47.5226 13.25 46.9609 13.25 46.3752V42.875Z" fill="#4A7A28"/>
<path opacity="0.5" fill-rule="evenodd" clip-rule="evenodd" d="M11.4214 7.00467C14.0074 4.4165 18.1723 4.4165 26.4999 4.4165C34.8275 4.4165 38.9925 4.4165 41.5784 7.00467C43.9281 9.35213 44.1445 12.9981 44.1666 19.8748V28.7082C44.1445 35.5849 43.9281 39.2309 41.5784 41.5783C41.047 42.1111 40.4286 42.5495 39.7499 42.8746C37.9325 43.758 35.4945 44.0384 32.0208 44.1268C30.4153 44.1665 28.589 44.1665 26.4999 44.1665C24.4108 44.1665 22.5845 44.1665 20.9791 44.1268C17.5054 44.0384 15.0674 43.758 13.2499 42.8746C12.5712 42.5495 11.9529 42.1111 11.4214 41.5783C9.07175 39.2309 8.85313 35.5849 8.83325 28.7082V19.8748C8.85534 12.9981 9.07175 9.35213 11.4214 7.00467Z" fill="#4A7A28"/>
<path d="M39.198 35.3335C39.198 34.8942 39.0235 34.473 38.7129 34.1624C38.4023 33.8517 37.981 33.6772 37.5417 33.6772H34.2292C33.79 33.6772 33.3687 33.8517 33.0581 34.1624C32.7475 34.473 32.573 34.8942 32.573 35.3335C32.573 35.7728 32.7475 36.194 33.0581 36.5046C33.3687 36.8152 33.79 36.9897 34.2292 36.9897H37.5417C37.981 36.9897 38.4023 36.8152 38.7129 36.5046C39.0235 36.194 39.198 35.7728 39.198 35.3335ZM13.8022 35.3335C13.8022 34.8942 13.9767 34.473 14.2873 34.1624C14.5979 33.8517 15.0191 33.6772 15.4584 33.6772H18.7709C19.2102 33.6772 19.6315 33.8517 19.9421 34.1624C20.2527 34.473 20.4272 34.8942 20.4272 35.3335C20.4272 35.7728 20.2527 36.194 19.9421 36.5046C19.6315 36.8152 19.2102 36.9897 18.7709 36.9897H15.4584C15.0191 36.9897 14.5979 36.8152 14.2873 36.5046C13.9767 36.194 13.8022 35.7728 13.8022 35.3335ZM12.1459 20.9793C12.1459 24.1019 12.1459 25.6632 13.1176 26.6327C14.087 27.6043 15.6483 27.6043 18.7709 27.6043H34.2292C37.3518 27.6043 38.9131 27.6043 39.8826 26.6327C40.8542 25.6632 40.8542 24.1019 40.8542 20.9793V15.4585C40.8542 12.3359 40.8542 10.7746 39.8826 9.80516C38.9153 8.8335 37.354 8.8335 34.2292 8.8335H18.7709C15.6483 8.8335 14.087 8.8335 13.1176 9.80516C12.1459 10.7724 12.1459 12.3337 12.1459 15.4585V20.9793ZM5.30008 26.0585L8.83341 28.7085V19.8752H6.62508C6.03939 19.8752 5.4777 20.1078 5.06355 20.522C4.64941 20.9361 4.41675 21.4978 4.41675 22.0835V24.2918C4.41675 24.6347 4.49657 24.9728 4.64989 25.2794C4.80321 25.5861 5.02582 25.8528 5.30008 26.0585ZM46.3751 19.8752H44.1645L44.1667 28.7085L47.7001 26.0585C47.9743 25.8528 48.197 25.5861 48.3503 25.2794C48.5036 24.9728 48.5834 24.6347 48.5834 24.2918V22.0835C48.5834 21.4978 48.3508 20.9361 47.9366 20.522C47.5225 20.1078 46.9608 19.8752 46.3751 19.8752Z" fill="#4A7A28"/>
</svg>
