<svg width="179" height="61" viewBox="0 0 179 61" fill="none" xmlns="http://www.w3.org/2000/svg">
<path d="M12.1988 12.1939C12.6883 10.7488 13.0816 9.67635 13.8374 8.35209C17.6348 1.69897 26.0252 -1.69003 33.3308 0.83798C37.4849 2.24611 40.9037 5.25647 42.8263 9.19897C44.2104 12.0743 44.5312 14.6183 44.4703 17.7539C44.5463 18.0111 45.346 18.7128 45.5941 18.9477C48.815 21.9832 52.1073 24.9943 55.2641 28.0923C57.4311 30.2188 54.8128 33.2179 52.2491 30.076C52.1552 34.8738 52.2297 39.946 52.2274 44.7677C53.9968 44.8291 57.8618 44.4145 55.9588 47.6161C55.3765 48.5957 54.3261 49.6763 53.5086 50.4773C49.3275 54.5741 43.9686 57.6833 38.2825 59.1176C35.4549 59.8256 33.0731 60.0184 30.191 60.037C23.2521 60.0815 17.0059 58.2778 11.0641 54.6182C8.98651 53.3385 3.887 49.912 2.87775 47.4792C2.76945 47.2182 2.98272 46.5791 3.18153 46.3364C5.11286 43.9787 11.0416 41.0477 13.8254 40.482C13.8189 37.1443 13.7749 33.8069 13.6932 30.4703C4.20387 29.8694 0.374007 21.1755 1.0306 12.7418C1.12392 11.5432 1.25908 10.1752 1.30693 8.99345C4.7267 9.21612 8.41289 10.3168 11.4543 11.8913C11.7177 12.0277 11.8959 12.1654 12.1988 12.1939ZM16.5749 31.2133C16.6652 33.9362 16.7126 36.6603 16.717 39.3847L16.7523 39.6316C17.1186 39.7461 19.444 39.3247 20.0012 39.2449C20.0044 38.1495 20.1095 31.0191 19.9042 30.3629C19.0834 31.6989 17.9681 32.3443 16.5749 31.2133Z" fill="#004312"/>
<path d="M12.1982 12.1939C12.6877 10.7488 13.081 9.67635 13.8368 8.35209C17.6342 1.69897 26.0246 -1.69003 33.3303 0.83798C37.4844 2.24611 40.9031 5.25647 42.8257 9.19897C44.2099 12.0743 44.5307 14.6183 44.4697 17.7539C43.9193 17.6062 40.276 13.747 39.5195 13.1692C38.7735 12.5993 36.7791 9.83963 35.5661 10.9201C30.841 15.1286 26.3928 19.6947 21.7707 24.0294C20.5024 25.2191 19.4927 26.3471 17.9799 27.2503C19.1221 25.4112 19.3908 22.4049 18.8389 20.336C17.7901 16.4044 15.4867 14.2195 12.1982 12.1939Z" fill="#C5E87A"/>
<path d="M36.2119 14.6973C37.1147 15.4202 38.7979 17.2172 39.7265 18.0668C42.7688 20.85 45.7795 24.0134 48.8637 26.7269L48.8748 44.9439C45.3671 44.998 41.2914 43.978 37.9409 42.979C36.8592 42.5947 35.7226 42.2819 34.6156 41.8828C30.8639 40.5304 27.3051 39.3327 23.2646 39.2322L23.2755 27.0395C24.9571 25.552 26.7227 23.7646 28.3542 22.1923L36.2119 14.6973Z" fill="#C5E87A"/>
<path d="M32.2156 27.879C34.282 27.8532 36.4149 27.8426 38.4837 27.864C39.3071 27.8725 39.6405 28.034 40.1548 28.6239C40.2369 30.7847 40.2102 33.6509 40.1596 35.8212C39.7715 36.2742 39.6262 36.3921 39.0938 36.5717C37.7221 36.5784 32.6702 36.8178 31.7096 36.3686C31.4556 36.2498 31.3377 35.9774 31.2518 35.722C31.0078 34.9972 30.9082 29.1635 31.2304 28.5677C31.4475 28.1666 31.8091 28.0163 32.2156 27.879Z" fill="#004312"/>
<path d="M20.9591 42.1875C21.888 42.1008 22.9671 42.1881 23.9031 42.2265C30.5529 42.4993 36.4235 46.6146 42.9693 47.1936C41.754 47.5185 39.9952 48.2801 38.6888 48.7135C35.7978 49.6618 32.8366 50.3813 29.8327 50.8655C29.0926 50.983 26.1426 51.3581 25.9075 51.7132C24.6601 53.5969 27.8359 53.3011 28.3074 53.282C33.6581 53.0662 38.7787 51.5049 43.8301 49.8688C46.4003 49.0364 49.0368 47.9493 51.7211 47.6599L51.1456 48.3277C51.0169 48.4641 50.8865 48.5989 50.7547 48.7322C44.1583 55.4109 33.8999 58.4331 24.6826 56.7162C18.6024 55.5836 10.8222 51.745 6.4248 47.3911C10.4219 44.2476 15.9203 42.4946 20.9591 42.1875Z" fill="#5D9B31"/>
<path d="M3.59072 12.1416C6.06296 12.4488 9.16273 13.7289 11.32 14.9754C15.283 17.2654 18.1235 21.8618 15.38 26.277C14.0753 23.7099 12.3493 21.098 9.87167 19.5184C9.30241 19.1451 8.98665 19.0117 8.37369 18.7421C9.08104 21.5954 11.7134 24.5511 13.2653 27.4292C8.29557 27.4652 5.02976 23.308 4.06434 18.8153C3.57757 16.55 3.58662 14.4442 3.59072 12.1416Z" fill="#5D9B31"/>
<path d="M64.5735 9.02095C67.1511 9.00092 69.7288 8.99404 72.3065 9.00049C75.4519 8.99927 79.5545 8.81422 82.379 10.3826C89.9011 14.5594 88.2935 24.8517 80.1408 27.1616C82.9584 31.075 85.5546 35.5002 88.3406 39.4713L83.8828 39.4727L82.3894 39.4722C79.9559 35.5346 77.3232 31.6659 74.8967 27.7156L69.8918 27.7036L69.9023 39.4721L64.5599 39.4776C64.6142 29.394 64.4057 19.0665 64.5735 9.02095ZM69.8967 23.3523L73.8221 23.352C76.1505 23.36 78.4413 23.6106 80.363 22.0039C82.2354 20.0906 82.5037 17.0766 80.5515 15.0588C78.8316 13.2809 76.3139 13.4502 74.0193 13.4495L70.0589 13.4507L69.9122 13.5474C69.8452 14.3044 69.8931 15.931 69.8939 16.7764L69.8967 23.3523Z" fill="white"/>
<path d="M159.676 17.125C166.019 16.3392 171.795 20.8523 172.566 27.1966C173.337 33.541 168.81 39.3061 162.465 40.0625C156.139 40.8165 150.397 36.3081 149.629 29.9844C148.86 23.6607 153.355 17.9081 159.676 17.125ZM161.993 35.7225C170.177 34.5201 169.207 20.545 160.237 21.3751C158.293 21.8093 157.065 22.4322 155.956 24.1794C153.871 27.4624 154.432 32.738 157.872 34.9097C158.741 35.4662 161.05 36.103 161.993 35.7225Z" fill="white"/>
<path d="M103.363 9.00408L124.066 8.99902C124.093 10.4598 124.092 11.9403 124.1 13.4026L108.706 13.4023C108.8 16.1651 108.675 19.0341 108.757 21.8391L122.516 21.8404L122.519 26.3589L109.593 26.3588C109.271 26.3544 109.023 26.3244 108.764 26.4756C108.671 27.258 108.715 28.7124 108.716 29.5699L108.73 35.0737L124.065 35.0762C124.152 36.2532 124.096 38.2197 124.11 39.4738L103.349 39.4701C103.467 36.2315 103.365 32.2357 103.366 28.9538L103.363 9.00408Z" fill="white"/>
<path d="M129.091 9.01302C130.796 9.02199 132.502 9.0199 134.208 9.00684L134.203 27.4164C136.119 25.0392 138.728 22.5602 140.766 20.2402C141.494 19.4113 142.331 18.6297 143.028 17.7619L148.767 17.7575C148.616 17.9324 148.426 18.1137 148.261 18.2786C145.27 21.2658 142.419 24.4221 139.399 27.3783L145.577 34.9773C146.722 36.3445 148.178 38.0588 149.225 39.4745L143.404 39.4689C141.386 36.9736 139.156 34.5246 137.134 32.024C136.249 30.9299 134.975 29.5639 134.218 28.4162L134.215 39.4737L128.888 39.4747L128.885 19.3608C128.884 16.1985 128.766 12.178 128.908 9.0725L129.091 9.01302Z" fill="white"/>
<path d="M92.293 17.5381L97.3055 17.5371C97.2114 24.7576 97.2941 32.2391 97.3063 39.4709L92.2965 39.4719L92.293 17.5381Z" fill="white"/>
<path d="M143.771 49.1294C144.393 49.0804 144.774 49.1042 145.389 49.1389C145.799 49.3819 146.044 49.6676 146.463 49.8449C146.477 49.4806 146.426 49.6132 146.638 49.3375C146.937 49.1615 147.268 49.2192 147.632 49.2303C147.65 50.895 147.678 52.5602 147.69 54.2255C147.702 55.0248 147.524 56.1309 146.892 56.706C146.085 57.3444 144.934 57.5094 143.94 57.3537C143.157 57.2311 141.907 56.7682 141.967 55.8007C143.156 55.5607 142.888 55.7842 143.827 56.4143C144.422 56.4577 144.801 56.4404 145.391 56.4129C145.491 56.3486 145.588 56.2817 145.683 56.2125C146.155 55.8687 146.839 54.7185 146.443 54.2323C146.268 54.3634 145.35 55.0569 145.228 55.0851C141.373 55.9785 140.098 50.5072 143.771 49.1294ZM145.029 54.1948C147.579 53.2085 146.783 49.8559 144.266 50.0592C141.676 51.2376 142.89 54.6778 145.029 54.1948Z" fill="white"/>
<path d="M103.484 49.1602C105.195 48.679 106.972 49.6745 107.455 51.3848C107.94 53.0951 106.946 54.8739 105.237 55.3597C103.524 55.8465 101.741 54.8511 101.256 53.1374C100.772 51.4239 101.77 49.6423 103.484 49.1602ZM104.974 54.3655C106.231 53.7408 106.731 52.3609 106.074 51.1094C105.822 50.6219 105.379 50.2599 104.852 50.1084C104.531 50.0187 104.158 50.0382 103.83 50.0689C101.276 51.2101 102.224 55.0317 104.974 54.3655Z" fill="white"/>
<path d="M94.0498 7.98884C95.7191 7.65566 97.3424 8.74071 97.6715 10.4106C98.0016 12.0805 96.913 13.701 95.2428 14.0273C93.5769 14.3528 91.9624 13.2682 91.6332 11.6031C91.304 9.9381 92.3856 8.32106 94.0498 7.98884Z" fill="white"/>
<path d="M80.7156 49.1361C82.0396 49.0303 83.1581 49.1675 83.9232 50.3987C84.2145 50.8677 84.4911 51.9513 84.3573 52.4637C83.7343 53.0732 80.1252 52.0074 79.6365 52.8999C79.6478 53.396 79.9881 53.7734 80.285 54.1577C81.0358 54.4866 81.2989 54.47 82.1328 54.4487C82.3709 54.3086 82.6477 54.1046 82.8796 53.9442C83.0192 53.7333 83.0236 53.7104 83.2328 53.5805C83.5784 53.5555 83.8774 53.7703 84.2008 53.942C83.2606 55.3939 81.5603 55.9436 79.9957 55.1268C79.2833 54.7477 78.752 54.0995 78.5201 53.3266C77.9569 51.5079 78.8544 49.6667 80.7156 49.1361ZM79.5036 51.7927L81.8361 51.7956C82.2581 51.7924 82.9147 51.8071 83.3163 51.7625C82.9588 50.8764 82.8873 50.587 82.0346 50.0602C81.7034 50.0567 81.2877 50.0407 80.9646 50.0569C80.0124 50.5275 79.9175 50.8119 79.5036 51.7927Z" fill="white"/>
<path d="M151.166 49.1325C151.456 49.1099 151.747 49.0983 152.038 49.0977C154.15 49.1012 154.789 50.7728 154.768 52.5937C153.862 52.6058 150.779 52.4944 150.103 52.6615C149.874 54.2611 152.136 55.1624 153.429 53.7824L153.502 53.7036L153.644 53.5379C153.951 53.5821 154.31 53.7975 154.598 53.9442C153.663 55.3684 152.111 55.9316 150.537 55.1496C149.801 54.7818 149.247 54.1293 149.004 53.3435C148.418 51.4841 149.278 49.7038 151.166 49.1325ZM149.981 51.7933L152.591 51.795L153.668 51.7897C153.281 50.4458 152.904 49.9642 151.417 50.0643C150.543 50.4532 150.424 50.6406 150.073 51.5514C150.041 51.6319 150.011 51.7125 149.981 51.7933Z" fill="white"/>
<path d="M171.673 49.1279C171.87 49.1149 172.068 49.1063 172.265 49.1017C174.531 49.0526 175.207 50.5978 175.23 52.5947L170.476 52.5958C170.92 54.1576 172.291 55.2826 173.725 53.9322C174.083 53.5341 174.407 53.3925 174.798 53.8547C174.93 54.5461 174.268 54.962 173.709 55.1811C169.358 56.8873 167.545 50.4563 171.673 49.1279ZM170.54 51.7963L172.903 51.7946L174.144 51.792C173.685 50.4873 173.394 49.9224 171.866 50.0693C170.966 50.5349 170.849 50.8327 170.54 51.7963Z" fill="white"/>
<path d="M128.872 49.1341C129.065 49.1171 129.259 49.1041 129.453 49.095C131.759 48.9966 132.337 50.6664 132.423 52.5951L127.655 52.5968C127.792 53.1007 127.852 53.4702 128.219 53.8599C129.131 54.8293 130.228 54.6321 131.097 53.7892C131.115 53.7514 131.23 53.6088 131.251 53.5808C131.572 53.566 131.916 53.7601 132.226 53.8949C131.392 55.4028 129.686 55.9194 128.157 55.1263C127.434 54.7469 126.896 54.0907 126.665 53.3077C126.094 51.404 126.964 49.7068 128.872 49.1341ZM129.819 51.7943C130.273 51.7915 130.899 51.8071 131.338 51.7777C130.883 50.5262 130.581 49.9446 129.106 50.0618C128.523 50.2869 127.633 51.0323 127.759 51.6978C128.07 51.8887 129.369 51.8016 129.819 51.7943Z" fill="white"/>
<path d="M88.8242 46.79C90.5258 46.8279 92.3337 46.7991 94.0431 46.8008L94.0596 47.952L90.0164 47.9522C90.0294 48.8003 90.0277 49.6486 90.0138 50.4967C91.1763 50.4989 92.3467 50.5113 93.5067 50.4641L93.5075 51.5543C92.9232 51.5477 90.3029 51.4612 90.0207 51.656C90.039 52.4997 90.0216 53.3866 90.0181 54.2338L94.0483 54.2369L94.0492 55.2683L88.8286 55.2709L88.8242 46.79Z" fill="white"/>
<path d="M71.7777 46.789L73.029 46.7881C72.9853 47.8698 73.0214 49.0753 72.9907 50.1893C74.1325 48.3807 77.0913 48.7697 77.206 51.0565C77.275 52.4322 77.2203 53.8846 77.2104 55.2691L76.0207 55.2686C76.0527 54.3907 76.034 53.4029 76.0365 52.5164C76.0522 51.9584 76.0508 50.7722 75.6161 50.473C72.2999 48.1899 73.0226 54.455 73.0342 55.2704L71.7617 55.2679C71.8909 52.8429 71.7895 49.2789 71.7777 46.789Z" fill="white"/>
<path d="M95.4452 46.7471C95.7735 46.8098 96.3291 46.7937 96.6835 46.795C96.6757 48.4481 96.6818 50.1014 96.7009 51.7544L99.2159 49.2364L100.874 49.2322C99.9639 50.0679 99.0591 50.9087 98.1587 51.7546C98.8022 52.427 99.4832 53.3082 100.075 54.0436C100.432 54.4466 100.785 54.8542 101.133 55.2661L99.6557 55.2676C98.8832 54.4165 98.0734 53.3259 97.3575 52.4072C97.098 52.7175 96.9805 52.8167 96.6766 53.0758C96.6687 53.7977 96.6818 54.5431 96.6844 55.2672L95.4443 55.2727L95.4452 46.7471Z" fill="white"/>
<path d="M117.542 49.1288L117.819 49.1131C121.427 48.9277 120.538 52.6756 120.567 55.268L119.336 55.2716C119.348 54.5426 119.371 53.8053 119.366 53.0766C119.357 51.57 119.558 50.1435 117.624 50.0289C115.576 50.7733 116.222 53.3852 116.216 55.2707L115.039 55.2667C115.052 53.2563 115.052 51.2458 115.041 49.2354L116.101 49.2352C116.344 49.4279 116.105 49.5531 116.303 49.9326C116.727 49.5521 116.916 49.3588 117.451 49.1617L117.542 49.1288Z" fill="white"/>
<path d="M158.54 49.1263C162.451 48.9539 161.399 52.4083 161.484 55.2695L160.238 55.2674C160.231 53.9904 160.366 52.4561 160.185 51.1932C160.041 50.1858 159.177 49.9138 158.252 50.1252C157.813 50.3706 157.71 50.485 157.394 50.8602C157.083 51.9468 157.205 54.0701 157.219 55.2754L156.052 55.2667L156.05 49.2339L157.077 49.2286C157.342 49.4127 157.058 49.692 157.292 50.0187C157.713 49.5862 157.889 49.398 158.447 49.1648L158.54 49.1263Z" fill="white"/>
<path d="M64.2588 46.7949C66.3977 46.8366 68.6648 46.7983 70.8142 46.7988C70.8114 47.1688 70.8282 47.5781 70.8355 47.9517L68.1891 47.9478C68.2575 49.4199 68.2049 51.3135 68.2063 52.8177C68.1988 53.6394 68.1755 54.4484 68.2472 55.267L66.9919 55.2694L66.9867 47.9549L64.2926 47.9505L64.2588 46.7949Z" fill="white"/>
<path d="M165.022 49.1361C167.07 49.0002 167.741 49.2753 168.627 51.1491C166.638 51.4838 167.162 50.3307 166.48 50.1265C163.069 49.105 162.88 55.5575 166.634 54.2595C167.178 53.9296 167.558 53.0094 168.33 53.4631C168.787 55.2812 163.957 56.9076 162.837 53.3357C162.55 52.4135 162.646 51.415 163.103 50.5643C163.555 49.7401 164.148 49.3802 165.022 49.1361Z" fill="white"/>
<path d="M122.735 47.6324L123.926 47.6289L123.915 49.2364L125.732 49.234L125.733 50.263L123.916 50.2642C123.941 51.17 123.882 52.1097 123.906 53.0184C123.952 54.6959 124.455 54.3553 125.702 54.3133L125.794 54.5015C125.783 54.7688 125.796 54.8698 125.7 55.1141C125.273 55.5608 125.087 55.3383 124.586 55.3967C122.084 55.6882 122.718 52.04 122.729 50.2606L121.484 50.2654L121.47 49.2425L122.73 49.2356L122.735 47.6324Z" fill="white"/>
<path d="M112.165 46.7656C112.492 46.8005 113.087 46.7878 113.437 46.79C113.401 49.5874 113.436 52.4651 113.436 55.2688L112.166 55.2722L112.165 46.7656Z" fill="white"/>
<path d="M136.382 46.7876L137.584 46.7871L137.589 55.2667L136.394 55.2695C136.396 52.5138 136.452 49.5242 136.382 46.7876Z" fill="white"/>
<path d="M133.645 46.7715L134.81 46.7767L134.811 55.2703L133.646 55.2659L133.645 46.7715Z" fill="white"/>
<path d="M139.14 49.2373L140.342 49.2363L140.366 55.2681L139.132 55.2745C139.215 53.4646 139.142 51.0903 139.14 49.2373Z" fill="white"/>
<path d="M139.489 46.7855C139.86 46.6481 140.274 46.8267 140.429 47.1911C140.584 47.5555 140.424 47.9771 140.067 48.1486C139.822 48.267 139.53 48.2404 139.31 48.0795C139.089 47.9185 138.974 47.6493 139.012 47.3787C139.05 47.1082 139.233 46.8803 139.489 46.7855Z" fill="white"/>
</svg>
