<svg width="104" height="36" viewBox="0 0 104 36" fill="none" xmlns="http://www.w3.org/2000/svg">
<g clip-path="url(#clip0_8_620)">
<path d="M7.30535 7.2415C10.4741 9.04591 12.093 12.2246 11.0275 15.8951L21.1935 6.44016L22.1306 6.53682C23.4569 7.91815 24.9295 9.15098 26.3261 10.4511C27.2384 11.3 32.8789 16.6194 33.1356 17.163C33.8837 18.7488 31.957 19.4283 31.013 18.1268V26.7804L33.1839 27.013L33.5 27.691C26.8382 38.9 9.94414 38.2345 1.86907 28.8664L1.71173 28.0315C3.28369 26.0674 5.79964 24.9774 8.11686 24.2503L8.13066 18.2669C1.71587 17.8032 -0.151425 11.202 0.689067 5.63602C0.869862 4.97477 2.71784 5.56177 3.25609 5.68785C4.41676 5.95823 6.27164 6.6531 7.30397 7.2415H7.30535ZM2.20582 7.2415V10.3824C2.20582 12.6491 5.06404 17.0985 7.71663 16.1081L5.1013 11.2902C7.07073 12.0089 8.13894 13.9422 9.16575 15.6135C11.6224 10.9792 5.97354 7.82009 2.20582 7.2415ZM28.9456 26.7132V16.1053L21.4502 8.78393L13.8568 16.3182L14.0527 23.3649C19.1909 23.6928 23.784 27.352 28.9456 26.7132ZM11.8542 23.5723V18.2683L11.0648 18.9366L9.92482 18.8259V23.711L11.8542 23.5709V23.5723ZM23.6515 27.9586C16.8585 25.5056 10.2588 23.3972 3.86196 28.3887C10.9751 35.3668 23.2388 36.6403 30.3188 28.9477C30.3161 28.6815 29.1085 28.9099 28.9359 28.9393C26.166 29.4086 22.9269 31.0253 19.8506 31.6039C18.5119 31.856 17.1566 32.1558 15.7779 32.0956L15.2148 31.5408L15.4439 30.909L24.6686 28.456C24.4878 28.2864 23.8888 28.0455 23.6501 27.9586H23.6515Z" fill="#022A0C"/>
<path d="M26.3261 10.4511C24.9281 9.15101 23.4569 7.91818 22.1306 6.53685L21.1935 6.44019L11.0275 15.8951C12.0916 12.2261 10.4741 9.04734 7.30536 7.24152C10.5514 -4.07248 26.9762 -1.46253 26.3261 10.4525V10.4511Z" fill="#C5E77B"/>
<path d="M28.9456 26.7132C23.784 27.352 19.1909 23.6928 14.0528 23.3649L13.8568 16.3182L21.4502 8.78394L28.9456 16.1053V26.7132ZM23.5245 21.7118L23.6529 16.8576L18.5933 16.9276L18.6651 21.4905C19.1371 22.1867 22.6385 21.9332 23.5259 21.7118H23.5245Z" fill="#C4E77B"/>
<path d="M23.6515 27.9587C23.8916 28.0455 24.4892 28.2865 24.67 28.456L15.4453 30.9091L15.2162 31.5409L15.7793 32.0957C17.158 32.1545 18.5119 31.8547 19.852 31.6039C22.9283 31.0253 26.166 29.4087 28.9373 28.9393C29.1098 28.9099 30.3174 28.6816 30.3202 28.9478C23.2402 36.6417 10.9751 35.3683 3.86334 28.3888C10.2602 23.3972 16.8599 25.5056 23.6529 27.9587H23.6515Z" fill="#5D9B33"/>
<path d="M2.20581 7.24146C5.97491 7.81864 11.6224 10.9778 9.16575 15.6135C8.13756 13.9422 7.07073 12.0089 5.1013 11.2902L7.71662 16.108C5.06404 17.0971 2.20581 12.6477 2.20581 10.3824V7.24146Z" fill="#5D9B34"/>
<path d="M23.5245 21.7117C22.6385 21.9316 19.1371 22.1852 18.6637 21.4903L18.592 16.9275L23.6515 16.8574L23.5231 21.7117H23.5245Z" fill="#022A0C"/>
</g>
<path d="M41.125 26V8.54545H48.6591C49.9545 8.54545 51.0881 8.78125 52.0597 9.25284C53.0313 9.72443 53.7869 10.4034 54.3267 11.2898C54.8665 12.1761 55.1364 13.2386 55.1364 14.4773C55.1364 15.7273 54.858 16.7812 54.3011 17.6392C53.75 18.4972 52.9744 19.1449 51.9744 19.5824C50.9801 20.0199 49.8182 20.2386 48.4886 20.2386H43.9886V16.5568H47.5341C48.0909 16.5568 48.5653 16.4886 48.9574 16.3523C49.3551 16.2102 49.6591 15.9858 49.8693 15.679C50.0852 15.3722 50.1932 14.9716 50.1932 14.4773C50.1932 13.9773 50.0852 13.571 49.8693 13.2585C49.6591 12.9403 49.3551 12.7074 48.9574 12.5597C48.5653 12.4062 48.0909 12.3295 47.5341 12.3295H45.8636V26H41.125ZM51.3523 17.9886L55.7159 26H50.5682L46.3068 17.9886H51.3523ZM56.2828 26V12.9091H60.9873V26H56.2828ZM58.6351 11.5455C57.9987 11.5455 57.4532 11.3352 56.9987 10.9148C56.5442 10.4943 56.3169 9.98864 56.3169 9.39773C56.3169 8.80682 56.5442 8.30114 56.9987 7.88068C57.4532 7.46023 57.9987 7.25 58.6351 7.25C59.2771 7.25 59.8226 7.46023 60.2714 7.88068C60.726 8.30114 60.9532 8.80682 60.9532 9.39773C60.9532 9.98864 60.726 10.4943 60.2714 10.9148C59.8226 11.3352 59.2771 11.5455 58.6351 11.5455ZM62.3745 26V8.54545H74.9541V12.3636H67.1132V15.3636H74.3063V19.1818H67.1132V22.1818H74.92V26H62.3745ZM80.658 22.8977L80.6921 17.3068H81.3058L84.4762 12.9091H89.7603L84.4421 19.7614H83.1126L80.658 22.8977ZM76.4308 26V8.54545H81.1353V26H76.4308ZM84.5103 26L81.5103 20.8182L84.5785 17.4773L89.8967 26H84.5103ZM95.8116 26.2386C94.3911 26.2386 93.1752 25.9574 92.1638 25.3949C91.1525 24.8267 90.3769 24.0369 89.8371 23.0256C89.2974 22.0085 89.0275 20.8295 89.0275 19.4886C89.0275 18.1477 89.2974 16.9716 89.8371 15.9602C90.3769 14.9432 91.1525 14.1534 92.1638 13.5909C93.1752 13.0227 94.3911 12.7386 95.8116 12.7386C97.232 12.7386 98.4479 13.0227 99.4593 13.5909C100.471 14.1534 101.246 14.9432 101.786 15.9602C102.326 16.9716 102.596 18.1477 102.596 19.4886C102.596 20.8295 102.326 22.0085 101.786 23.0256C101.246 24.0369 100.471 24.8267 99.4593 25.3949C98.4479 25.9574 97.232 26.2386 95.8116 26.2386ZM95.8457 22.7614C96.2434 22.7614 96.5871 22.6278 96.8769 22.3608C97.1667 22.0937 97.3911 21.7131 97.5502 21.2188C97.7093 20.7244 97.7888 20.1364 97.7888 19.4545C97.7888 18.767 97.7093 18.179 97.5502 17.6903C97.3911 17.196 97.1667 16.8153 96.8769 16.5483C96.5871 16.2812 96.2434 16.1477 95.8457 16.1477C95.4252 16.1477 95.0644 16.2812 94.7633 16.5483C94.4621 16.8153 94.232 17.196 94.0729 17.6903C93.9138 18.179 93.8343 18.767 93.8343 19.4545C93.8343 20.1364 93.9138 20.7244 94.0729 21.2188C94.232 21.7131 94.4621 22.0937 94.7633 22.3608C95.0644 22.6278 95.4252 22.7614 95.8457 22.7614Z" fill="#F7F4EE"/>
<defs>
<clipPath id="clip0_8_620">
<rect width="33" height="36" fill="white"/>
</clipPath>
</defs>
</svg>
