<svg width="268" height="106" viewBox="0 0 268 106" fill="none" xmlns="http://www.w3.org/2000/svg">
<g clip-path="url(#clip0_1099_8921)">
<path d="M126.88 44.84L117.93 55.21L128.25 68.83H121.79L121.64 68.63L114.51 59.17C114.2 59.53 113.73 60.07 113.3 60.56C112.78 61.17 112.21 61.82 111.75 62.36V68.82H106.57V18.19H111.75V55.3L120.64 44.83H126.89L126.88 44.84ZM101.11 68.83H95.9397V54.63C95.9397 50.92 94.2997 49.11 90.9397 49.11C87.0997 49.11 84.7097 51.6 84.7097 55.6V68.82H79.5297V44.83H84.7097V47.37C86.3497 45.38 88.9097 44.26 91.9697 44.26C97.6097 44.26 101.11 48.07 101.11 54.2V68.82V68.83ZM74.5497 34C74.5497 35.89 73.0297 37.44 71.1697 37.44C69.3097 37.44 67.7897 35.9 67.7897 34C67.7897 32.1 69.2997 30.57 71.1697 30.57C73.0397 30.57 74.5497 32.11 74.5497 34ZM51.9697 50.99C51.9697 52.59 52.9397 53.07 56.5397 54.01C60.3597 55.01 64.7397 56.82 64.7397 61.97C64.7397 66.54 61.2597 69.38 55.6597 69.38C51.3297 69.38 47.8297 67.51 45.5697 63.98L45.3197 63.58L49.1597 60.82L49.4397 61.28C50.7897 63.55 52.9497 64.75 55.6697 64.75C58.1997 64.75 59.7097 63.79 59.7097 62.17C59.7097 60.55 58.6097 59.8 54.5797 58.65C50.6897 57.56 47.0897 55.89 47.0897 51.11C47.0897 47.01 50.2697 44.25 54.9997 44.25C58.5497 44.25 61.1497 45.49 63.1497 48.15L63.4297 48.52L59.8597 51.54L59.5397 51.12C58.3697 49.56 56.9797 48.87 55.0597 48.87C53.1397 48.87 51.9897 49.69 51.9897 50.96M68.5497 44.84H73.7997V68.83H68.5497V44.84ZM139.03 53.01C139.03 23.73 115.73 0 86.9997 0C58.2697 0 34.9697 23.73 34.9697 53.01C34.9697 82.29 58.2597 106.01 86.9997 106.01C115.74 106.01 139.04 82.28 139.04 53.01" fill="white"/>
<path d="M0.75 45.3298H5.01V68.3298H0.75V45.3298ZM0 33.9998C0 32.3298 1.37 31.0698 2.88 31.0698C4.39 31.0698 5.76 32.3298 5.76 33.9998C5.76 35.6698 4.39 36.9398 2.88 36.9398C1.37 36.9398 0 35.6798 0 33.9998Z" fill="white"/>
<path d="M9.88012 45.33H14.0701V49.03C15.5101 46.23 18.3901 44.77 21.8201 44.77C26.7701 44.77 30.4701 47.98 30.4701 54.21V68.33H26.2801V54.62C26.2801 50.56 24.3601 48.61 20.7801 48.61C16.7401 48.61 14.0601 51.2 14.0601 55.6V68.33H9.87012V45.33H9.88012Z" fill="white"/>
<path d="M161.09 54.84C160.53 51.2 158.27 48.41 154.02 48.41C150.1 48.41 147.36 50.93 146.68 54.84H161.1H161.09ZM154.42 65.26C157.93 65.26 159.98 64 161.5 62.25L164.11 64.84C162.04 67.36 158.96 68.89 154.49 68.89C147.15 68.89 142.13 63.72 142.13 56.87C142.13 50.02 147.42 44.77 154.01 44.77C161.22 44.77 165.61 50.5 165.47 58.41H146.53C147.14 62.67 150.02 65.26 154.41 65.26" fill="white"/>
<path d="M169.1 45.33H173.3V49.18C174.74 46.17 177.28 44.77 179.89 44.77C181.47 44.77 182.43 45.05 183.46 45.68L182.02 49.32C181.27 48.9 180.44 48.69 179.21 48.69C175.84 48.69 173.31 51.49 173.31 56.17V68.34H169.11V45.34L169.1 45.33Z" fill="white"/>
<path d="M191.62 57.85C188.88 57.85 186.68 58.9 186.68 61.48C186.68 64.06 188.59 65.4 191.75 65.4C195.12 65.4 198.14 63.58 198.14 60.37V57.85H191.62ZM198.15 54.21C198.15 49.94 196.09 48.41 192.86 48.41C189.98 48.41 188.06 49.52 186.48 51.7L183.81 49.32C186.08 46.24 189.09 44.77 193.01 44.77C198.77 44.77 202.34 47.85 202.34 54.21V68.33H198.16V65.74C196.65 67.7 194.17 68.88 191.09 68.88C186.35 68.88 182.52 66.51 182.52 61.47C182.52 56.79 186.57 54.41 191.37 54.41H198.17V54.2L198.15 54.21Z" fill="white"/>
<path d="M204.87 48.97V45.34H207.83V31H212.02V45.34H217.64V48.97H212.02V62.11C212.02 64.21 212.77 65.19 214.41 65.19C215.44 65.19 216.27 64.7 216.88 64.21L218.67 67.22C217.64 68.2 216 68.9 213.93 68.9C210.23 68.9 207.83 66.87 207.83 62.33V48.98H204.87V48.97Z" fill="white"/>
<path d="M238.3 56.87C238.3 52.05 235.21 48.41 230.68 48.41C226.15 48.41 223.06 52.05 223.06 56.87C223.06 61.69 226.16 65.26 230.68 65.26C235.2 65.26 238.3 61.62 238.3 56.87ZM218.67 56.87C218.67 49.95 223.95 44.77 230.68 44.77C237.41 44.77 242.62 49.94 242.62 56.87C242.62 63.8 237.34 68.89 230.68 68.89C224.02 68.89 218.67 63.72 218.67 56.87Z" fill="white"/>
<path d="M245.91 45.33H250.1V49.18C251.54 46.17 254.08 44.77 256.68 44.77C258.26 44.77 259.22 45.05 260.25 45.68L258.82 49.32C258.05 48.9 257.23 48.69 256 48.69C252.63 48.69 250.1 51.49 250.1 56.17V68.34H245.91V45.34V45.33Z" fill="white"/>
<path d="M265.35 46.92C265.19 46.84 264.95 46.79 264.6 46.79H264.07V48.04H264.63C264.89 48.04 265.09 48.01 265.22 47.96C265.46 47.87 265.58 47.69 265.58 47.42C265.58 47.17 265.5 47 265.35 46.92ZM264.68 46.36C265.11 46.36 265.43 46.4 265.63 46.48C265.99 46.63 266.17 46.92 266.17 47.36C266.17 47.67 266.06 47.9 265.83 48.04C265.71 48.12 265.55 48.17 265.34 48.21C265.6 48.25 265.8 48.37 265.93 48.55C266.05 48.73 266.11 48.91 266.11 49.09V49.34C266.11 49.42 266.11 49.51 266.11 49.6C266.11 49.69 266.13 49.75 266.14 49.78L266.16 49.82H265.59C265.59 49.82 265.59 49.8 265.59 49.79C265.59 49.78 265.59 49.77 265.58 49.75V49.64L265.57 49.36C265.57 48.96 265.46 48.69 265.24 48.56C265.11 48.49 264.88 48.45 264.56 48.45H264.07V49.82H263.46V46.36H264.68ZM262.81 46.19C262.28 46.72 262.02 47.36 262.02 48.11C262.02 48.86 262.28 49.51 262.81 50.04C263.34 50.57 263.98 50.84 264.73 50.84C265.48 50.84 266.12 50.57 266.65 50.04C267.18 49.51 267.44 48.87 267.44 48.11C267.44 47.35 267.18 46.72 266.65 46.19C266.12 45.66 265.48 45.39 264.73 45.39C263.98 45.39 263.34 45.66 262.81 46.19ZM266.97 50.33C266.36 50.95 265.61 51.25 264.74 51.25C263.87 51.25 263.13 50.94 262.52 50.33C261.91 49.72 261.6 48.97 261.6 48.1C261.6 47.23 261.91 46.49 262.52 45.88C263.13 45.27 263.87 44.96 264.74 44.96C265.61 44.96 266.36 45.27 266.97 45.88C267.59 46.49 267.89 47.23 267.89 48.1C267.89 48.97 267.59 49.71 266.97 50.33Z" fill="white"/>
</g>
<defs>
<clipPath id="clip0_1099_8921">
<rect width="267.89" height="106" fill="white"/>
</clipPath>
</defs>
</svg>
