<svg width="53" height="53" viewBox="0 0 53 53" fill="none" xmlns="http://www.w3.org/2000/svg">
<path d="M6.625 14.407C6.625 13.5347 7.34713 12.8303 8.23708 12.8303H18.8106C18.8238 10.9709 19.027 8.42466 20.8687 6.66241C22.3859 5.21544 24.4035 4.41076 26.5 4.41653C28.5965 4.41076 30.6141 5.21544 32.1312 6.66241C33.973 8.42466 34.1762 10.9709 34.1894 12.8303H44.7629C45.6529 12.8303 46.375 13.537 46.375 14.407C46.3733 14.6166 46.3301 14.8237 46.2481 15.0166C46.166 15.2094 46.0466 15.3841 45.8968 15.5306C45.747 15.6772 45.5697 15.7926 45.3751 15.8704C45.1805 15.9482 44.9725 15.9867 44.7629 15.9838H8.23708C8.02754 15.9867 7.81949 15.9482 7.62489 15.8704C7.43029 15.7926 7.25299 15.6772 7.10317 15.5306C6.95336 15.3841 6.83398 15.2094 6.75192 15.0166C6.66986 14.8237 6.62673 14.6166 6.625 14.407Z" fill="#4A7A28"/>
<path opacity="0.5" d="M25.6078 48.5831H27.3922C33.538 48.5831 36.6097 48.5831 38.6105 46.6265C40.6068 44.6699 40.81 41.4612 41.2185 35.0438L41.8082 25.7953C42.029 22.3128 42.1394 20.5704 41.139 19.4684C40.1365 18.3643 38.4449 18.3643 35.0595 18.3643H17.9405C14.5551 18.3643 12.8613 18.3643 11.861 19.4684C10.8606 20.5726 10.9688 22.3128 11.1918 25.7953L11.7815 35.0438C12.19 41.4612 12.3932 44.6721 14.3917 46.6265C16.3902 48.5831 19.462 48.5831 25.6078 48.5831Z" fill="#4A7A28"/>
<path fill-rule="evenodd" clip-rule="evenodd" d="M20.8135 25.356C21.7256 25.2589 22.536 25.9589 22.6266 26.9173L23.7307 38.5398C23.8213 39.496 23.1566 40.3506 22.2489 40.4478C21.3391 40.5428 20.5264 39.8449 20.4359 38.8865L19.3317 27.264C19.2412 26.3056 19.9059 25.451 20.8135 25.356ZM32.1864 25.356C33.0963 25.451 33.761 26.3056 33.6682 27.264L32.5641 38.8865C32.4757 39.8449 31.6631 40.5428 30.7532 40.4478C29.8412 40.3506 29.1787 39.4982 29.2692 38.5398L30.3734 26.9151C30.4639 25.9589 31.2766 25.2589 32.1842 25.3538" fill="#4A7A28"/>
</svg>
