<svg width="44" height="44" viewBox="0 0 44 44" fill="none" xmlns="http://www.w3.org/2000/svg">
<path opacity="0.5" fill-rule="evenodd" clip-rule="evenodd" d="M22 40.3334C32.1255 40.3334 40.3333 32.1256 40.3333 22.0001C40.3333 11.8746 32.1255 3.66675 22 3.66675C11.8745 3.66675 3.66666 11.8746 3.66666 22.0001C3.66666 32.1256 11.8745 40.3334 22 40.3334ZM22 29.3334C23.9449 29.3334 25.8102 28.5608 27.1854 27.1855C28.5607 25.8103 29.3333 23.945 29.3333 22.0001C29.3333 20.0552 28.5607 18.1899 27.1854 16.8146C25.8102 15.4394 23.9449 14.6667 22 14.6667C20.0551 14.6667 18.1898 15.4394 16.8145 16.8146C15.4393 18.1899 14.6667 20.0552 14.6667 22.0001C14.6667 23.945 15.4393 25.8103 16.8145 27.1855C18.1898 28.5608 20.0551 29.3334 22 29.3334Z" fill="#5AA029"/>
<path d="M10.0448 35.9004L17.8768 28.0666C17.1124 27.547 16.453 26.8877 15.9335 26.1232L8.09967 33.9534C8.69978 34.6501 9.34756 35.2978 10.043 35.8967M8.09967 10.0467L15.9335 17.8787C16.453 17.1143 17.1124 16.4549 17.8768 15.9354L10.0467 8.0979C9.35 8.69923 8.70161 9.34762 8.1015 10.0431M26.1213 15.9336L33.9533 8.1034C34.65 8.70229 35.2978 9.35007 35.8967 10.0467L28.0683 17.8787C27.5483 17.1141 26.8883 16.4547 26.1232 15.9354M35.8985 33.9552L28.0647 26.1214C27.5451 26.8859 26.8858 27.5452 26.1213 28.0647L33.9533 35.9004C34.6512 35.3003 35.2996 34.6519 35.8985 33.9552Z" fill="#5AA029"/>
</svg>
